<?xml version="1.0" encoding="iso-8859-1"?>
<!-- Generator: Adobe Illustrator 18.1.1, SVG Export Plug-In . SVG Version: 6.00 Build 0)  -->
<svg version="1.1" id="Capa_1" xmlns="http://www.w3.org/2000/svg" xmlns:xlink="http://www.w3.org/1999/xlink" x="0px" y="0px"
	 viewBox="0 0 27.493 27.493" style="enable-background:new 0 0 27.493 27.493;" xml:space="preserve">
<g>
	<g id="c138_play">
		<path style="fill:#030104;" d="M13.745,0C6.156,0,0,6.154,0,13.746c0,7.593,6.156,13.747,13.745,13.747
			c7.595,0,13.748-6.154,13.748-13.747C27.493,6.154,21.34,0,13.745,0z M21.904,14.032l-12.045,7.69
			C9.794,21.775,9.713,21.8,9.633,21.8l-0.162-0.035c-0.121-0.058-0.198-0.186-0.198-0.325V6.054c0-0.137,0.077-0.264,0.198-0.324
			C9.601,5.668,9.75,5.686,9.86,5.769l12.045,7.693c0.083,0.072,0.138,0.174,0.138,0.284C22.042,13.855,21.987,13.96,21.904,14.032z
			"/>
	</g>
</g>
<g>
</g>
<g>
</g>
<g>
</g>
<g>
</g>
<g>
</g>
<g>
</g>
<g>
</g>
<g>
</g>
<g>
</g>
<g>
</g>
<g>
</g>
<g>
</g>
<g>
</g>
<g>
</g>
<g>
</g>
</svg>
